<svg width="122" height="122" viewBox="0 0 122 122" fill="none" xmlns="http://www.w3.org/2000/svg">
<rect width="122" height="122" rx="36" fill="#46C63A"/>
<path d="M60.502 24.7131L91.9234 42.8563V79.1437L60.502 97.2869L29.0807 79.1437V42.8563L60.502 24.7131ZM60.502 20L25 40.5003V81.4997L60.502 102L96.0041 81.4997V40.5003L60.502 20Z" fill="white"/>
<path d="M50.4248 47.2908H47.8764H45.3269V49.8397V52.3886V54.9385V57.4874V60.0363V62.5851V65.135V67.6839H42.7785V70.2328H40.2302V67.6839H37.6818V65.135H35.1323H32.584V67.6839V70.2328H35.1323V72.7817H37.6818V75.3316H40.2302H42.7785H45.3269V72.7817H47.8764V70.2328H50.4248V67.6839V65.135V62.5851V60.0363V57.4874V54.9385V52.3886V49.8397V47.2908Z" fill="white"/>
<path d="M64.7062 47.2163H58.779V75.4051H64.7062V47.2163Z" fill="white"/>
<path d="M88.416 47.2163H82.4888V75.4051H88.416V47.2163Z" fill="white"/>
<path d="M76.5616 58.0424H70.6334V63.9708H76.5616V58.0424Z" fill="white"/>
<path d="M70.6334 52.1141H64.7062V58.0425H70.6334V52.1141Z" fill="white"/>
<path d="M82.4888 52.1141H76.5616V58.0425H82.4888V52.1141Z" fill="white"/>
</svg>
