<svg width="60" height="19" viewBox="0 0 60 19" fill="none" xmlns="http://www.w3.org/2000/svg">
<path d="M55.6642 8.50566C57.9786 8.50566 59.8548 6.63704 59.8548 4.33199C59.8548 2.02694 57.9786 0.158325 55.6642 0.158325C53.3499 0.158325 51.4737 2.02694 51.4737 4.33199C51.4737 6.63704 53.3499 8.50566 55.6642 8.50566Z" fill="#D15C22"/>
<path d="M55.6421 3.83799L56.1063 3.38515C56.1651 3.32901 56.2431 3.29769 56.3242 3.29769C56.4054 3.29769 56.4834 3.32901 56.5421 3.38515C56.6621 3.50232 56.6621 3.69232 56.5421 3.80949L55.879 4.45232C55.8512 4.48515 55.8171 4.51197 55.7787 4.53113C55.7402 4.55029 55.6983 4.5614 55.6555 4.56377C55.6126 4.56614 55.5697 4.55973 55.5294 4.54492C55.4891 4.53011 55.4523 4.50723 55.4211 4.47765L53.82 2.91649C53.7916 2.88901 53.7689 2.85606 53.7535 2.8196C53.738 2.78315 53.73 2.74394 53.73 2.70432C53.73 2.6647 53.738 2.62549 53.7535 2.58904C53.7689 2.55258 53.7916 2.51963 53.82 2.49215C53.8788 2.43601 53.9568 2.40469 54.0379 2.40469C54.1191 2.40469 54.1971 2.43601 54.2558 2.49215L55.639 3.83482L55.6421 3.83799ZM54.0379 3.61949C54.2085 3.61949 54.3474 3.77149 54.3474 3.96149V5.91849C54.3474 6.10849 54.2085 6.26049 54.0379 6.26049C53.8674 6.26049 53.7285 6.10849 53.7285 5.91849V3.96149C53.7285 3.77149 53.8674 3.61949 54.0379 3.61949V3.61949ZM57.2906 2.40665C57.332 2.40788 57.3729 2.4173 57.4107 2.43436C57.4485 2.45142 57.4827 2.47579 57.5111 2.50608C57.5396 2.53637 57.5618 2.57199 57.5765 2.61089C57.5912 2.6498 57.5981 2.69123 57.5969 2.73282V5.93115C57.5986 5.973 57.5919 6.01478 57.5774 6.05405C57.5629 6.09332 57.5408 6.12931 57.5123 6.15994C57.4838 6.19057 57.4495 6.21523 57.4115 6.23249C57.3734 6.24975 57.3323 6.25927 57.2906 6.26049C57.2488 6.25967 57.2076 6.25056 57.1694 6.23368C57.1312 6.2168 57.0967 6.19249 57.0679 6.16216C57.0392 6.13183 57.0167 6.09607 57.0018 6.05696C56.9868 6.01786 56.9798 5.97617 56.9811 5.93432V2.73599C56.9794 2.69388 56.9861 2.65185 57.0008 2.61237C57.0155 2.5729 57.038 2.53676 57.0668 2.50609C57.0956 2.47542 57.1302 2.45082 57.1687 2.43375C57.2071 2.41667 57.2485 2.40746 57.2906 2.40665V2.40665Z" fill="white"/>
<path d="M16.001 6.67535C16.3442 6.56878 16.7155 6.60294 17.0337 6.77034C17.2318 6.88098 17.3978 7.04166 17.5149 7.23643C17.6321 7.4312 17.6964 7.65331 17.7016 7.88071C17.7067 8.10812 17.6525 8.33292 17.5442 8.53281C17.436 8.73271 17.2775 8.90076 17.0845 9.02029C16.8915 9.13982 16.6707 9.20668 16.444 9.21423C16.2173 9.22178 15.9926 9.16977 15.7921 9.06335C15.5916 8.95692 15.4224 8.79979 15.3012 8.60754C15.1799 8.41528 15.1109 8.19459 15.101 7.96734C15.0911 7.68326 15.1735 7.40363 15.3358 7.17059C15.4981 6.93756 15.7316 6.76374 16.001 6.67535V6.67535ZM1.60418 7.26751C2.31787 7.27701 3.03155 7.26118 3.74839 7.27701C4.74629 9.93068 5.76945 12.578 6.77997 15.2253C7.80629 12.5812 8.81681 9.92434 9.82103 7.27068H11.9621C12.4547 11.0137 12.9726 14.7503 13.4684 18.4902C12.7737 18.4902 12.0789 18.4965 11.3842 18.4902C11.0684 16.0835 10.7558 13.68 10.421 11.2797L7.7905 18.4933C7.1526 18.4933 6.51787 18.4997 5.87997 18.4933C5.00839 16.0803 4.12418 13.6737 3.24629 11.267C2.93366 13.6737 2.60524 16.0835 2.28945 18.4933C1.55366 18.4997 0.817867 18.4902 0.0852356 18.4965V18.449C0.265236 17.3945 0.375762 16.3273 0.530499 15.2697C0.884183 12.6033 1.25681 9.93701 1.60418 7.27068V7.26751ZM31.5852 8.41701C31.7842 8.43918 32.0273 8.35368 32.1979 8.45818C32.2073 9.12318 32.1979 9.79451 32.201 10.4627C33.0537 10.4753 33.9031 10.4627 34.7526 10.469C34.7558 11.1783 34.7558 11.8877 34.7526 12.6002H32.1852V15.5325C32.1884 15.8523 32.2358 16.2133 32.4852 16.4413C32.7884 16.7263 33.2526 16.7327 33.6316 16.6313C33.9568 16.5522 34.2 16.3115 34.4368 16.0898C34.5631 16.6915 34.7179 17.2837 34.8473 17.8822C34.631 18.1588 34.3575 18.3851 34.0458 18.5458C33.734 18.7065 33.3912 18.7977 33.041 18.8132C32.4537 18.8448 31.841 18.7657 31.3263 18.4648C30.873 18.1994 30.5351 17.7736 30.3789 17.271C30.1989 16.7612 30.1894 16.2102 30.1958 15.6718V12.6002H28.8221C28.8473 12.3405 28.7305 12.027 28.9263 11.8148C29.8105 10.6812 30.7042 9.55384 31.5852 8.41701V8.41701ZM23.3463 10.2378C24.4042 10.0732 25.5568 10.3772 26.3305 11.1372C27.0252 11.8053 27.3347 12.7902 27.341 13.737V18.4933H25.3579V14.1613C25.3547 13.6452 25.2 13.1005 24.8052 12.7458C24.041 12.0587 22.7337 12.2265 22.0894 12.9992C21.9379 13.1892 21.8147 13.414 21.821 13.6642V18.4933H19.8379V10.4152H21.7579L21.761 11.1973C22.0547 10.602 22.721 10.317 23.3494 10.2378H23.3463ZM37.5094 11.2163C37.9995 10.7835 38.5856 10.4743 39.219 10.3146C39.8523 10.1548 40.5145 10.1492 41.1505 10.298C42.0789 10.507 42.8968 11.1118 43.4147 11.9067C44.04 12.844 44.2421 14.0125 44.1189 15.124C42.1358 15.1493 40.1494 15.1272 38.1663 15.1335C38.2214 15.4162 38.3445 15.6812 38.525 15.9053C38.7056 16.1294 38.938 16.3058 39.2021 16.4192C40.1589 16.8087 41.28 16.72 42.1989 16.2735C42.4958 16.1373 42.7263 15.903 42.9694 15.6908C43.1589 16.188 43.3673 16.6725 43.5473 17.1728C43.4684 17.4008 43.2663 17.575 43.0989 17.746C42.1831 18.5472 40.8916 18.7688 39.72 18.6073C39.1459 18.5406 38.5927 18.3518 38.0971 18.0537C37.6016 17.7555 37.1752 17.3548 36.8463 16.8783C35.7316 15.1557 35.9747 12.616 37.5094 11.2163V11.2163ZM39.4989 12.3057C38.9147 12.4577 38.3747 12.8947 38.2516 13.509C39.5463 13.509 40.841 13.5185 42.1358 13.509C42.0722 13.1339 41.8634 12.7992 41.5547 12.578C40.961 12.1663 40.181 12.1315 39.5021 12.3057H39.4989ZM48.9 10.4405C49.2155 10.2638 49.574 10.1791 49.9351 10.1959C50.2961 10.2127 50.6452 10.3303 50.9431 10.5355C51.0537 10.6305 51.1989 10.735 51.1642 10.8965C51.1073 11.4823 50.9779 12.0618 50.9116 12.6477C50.6745 12.4909 50.4068 12.3866 50.1263 12.3418C49.8459 12.297 49.5591 12.3128 49.2852 12.388C48.6031 12.5653 48.0663 13.243 48.1263 13.9523V18.4933H46.1147V10.4152H48.0631C48.0694 10.7508 48.0631 11.0897 48.0663 11.4285C48.2259 11.0148 48.5195 10.6668 48.9 10.4405V10.4405ZM15.4263 10.5197C16.0768 10.5292 16.7305 10.5228 17.3842 10.5228V18.6548C16.7337 18.6548 16.08 18.6612 15.4294 18.6548C15.4294 15.9442 15.4358 13.2335 15.4263 10.5197V10.5197Z" fill="#222222"/>
</svg>
