<svg xmlns="http://www.w3.org/2000/svg" viewBox="0 0 56.16 52"><title>get</title><g id="Слой_2" data-name="Слой 2"><g id="Слой_1-2" data-name="Слой 1"><path d="M56.16,23.46V46.18A5.83,5.83,0,0,1,50.34,52H5.82A5.83,5.83,0,0,1,0,46.18V23.46a5.83,5.83,0,0,1,5.82-5.83h8.27a2,2,0,0,1,2,2h0a2,2,0,0,1-2,2H5.82A1.83,1.83,0,0,0,4,23.46V46.18A1.83,1.83,0,0,0,5.82,48H50.34a1.83,1.83,0,0,0,1.82-1.82V23.46a1.83,1.83,0,0,0-1.82-1.83H41.48a2,2,0,0,1-2-2h0a2,2,0,0,1,2-2h8.86A5.83,5.83,0,0,1,56.16,23.46ZM16,26.91,27,37.84a2.48,2.48,0,0,0,.3.25l.16.08.19.1a1.17,1.17,0,0,0,.2.06l.17.05a1.72,1.72,0,0,0,.39,0,1.67,1.67,0,0,0,.39,0l.18-.05.2-.06.19-.1.15-.08a2.6,2.6,0,0,0,.31-.25L41.11,26.5a2,2,0,1,0-2.82-2.83l-7.93,7.92V2a2,2,0,0,0-4,0V31.59l-7.51-7.51A2,2,0,0,0,16,26.91Z"/></g></g></svg>