<svg width="24" height="24" viewBox="0 0 24 24" fill="none" xmlns="http://www.w3.org/2000/svg">
<mask id="path-1-outside-1" maskUnits="userSpaceOnUse" x="4" y="5" width="16" height="14" fill="black">
<rect fill="white" x="4" y="5" width="16" height="14"/>
<path d="M18.1479 10.6677L18.6366 10.179C18.86 9.96454 18.9927 9.67252 19.0072 9.36313C19.0218 9.05374 18.9172 8.75055 18.7149 8.516C18.556 8.33729 18.3462 8.21153 18.1137 8.15564L18.2126 8.05671C18.4367 7.84246 18.5698 7.55024 18.5844 7.24056C18.599 6.93088 18.4939 6.62745 18.2909 6.3931C18.184 6.27304 18.0536 6.17623 17.9077 6.10865C17.7619 6.04107 17.6037 6.00417 17.443 6.00023C17.2821 5.99708 17.1222 6.02597 16.9725 6.08522C16.8229 6.14447 16.6865 6.23289 16.5713 6.34533L16.5168 6.39988C16.3078 6.20123 16.0328 6.0867 15.7446 6.07824C15.5842 6.07524 15.4248 6.10433 15.2757 6.16378C15.1267 6.22324 14.991 6.31187 14.8766 6.42447L14.3139 6.98721C14.2519 6.72878 14.1048 6.4987 13.8963 6.33395C13.6878 6.16919 13.4299 6.07933 13.1641 6.07881H13.1624C13.0075 6.07866 12.8541 6.10918 12.7111 6.16861C12.568 6.22803 12.4381 6.31518 12.3289 6.42504L10.1809 8.5731C10.1407 8.22517 9.97773 7.90299 9.72131 7.66441C9.55326 7.51264 9.33319 7.43147 9.10684 7.43779C8.88049 7.44411 8.66528 7.53742 8.50596 7.69833L6.47096 9.73333C5.57554 10.6024 5.04986 11.7834 5.00337 13.0304C4.95688 14.2774 5.39317 15.4943 6.22139 16.4276C6.79018 17.0605 7.51874 17.5286 8.3307 17.783C9.14266 18.0375 10.0081 18.0687 10.8363 17.8736C11.0508 17.9028 11.2669 17.9177 11.4833 17.9183C12.109 17.9186 12.7285 17.7949 13.3062 17.5544C13.8838 17.3138 14.4079 16.9611 14.8484 16.5167L18.6725 12.6954C18.8953 12.48 19.0275 12.1876 19.0419 11.878C19.0563 11.5684 18.9518 11.2649 18.7499 11.0298C18.5911 10.8503 18.3809 10.7239 18.1479 10.6677V10.6677ZM18.2946 8.89361C18.3983 9.0213 18.4501 9.18339 18.4396 9.34756C18.4291 9.51173 18.3572 9.66592 18.2381 9.7794L17.0343 10.9832L16.984 11.0335C16.9758 11.0256 16.9668 11.0193 16.9586 11.012C16.9385 10.9942 16.9181 10.9769 16.8972 10.9608C16.8763 10.9447 16.8475 10.9247 16.8218 10.9077C16.8014 10.8944 16.7811 10.8794 16.7599 10.8684C16.7293 10.8512 16.6977 10.8365 16.666 10.8221C16.6477 10.8136 16.6301 10.8042 16.6115 10.7969C16.5601 10.7762 16.5073 10.7594 16.4535 10.7466L16.8441 10.3557L16.9422 10.2582C16.9921 10.2072 17.0376 10.1522 17.0784 10.0937C17.0956 10.0697 17.1101 10.0445 17.1253 10.0196C17.144 9.98855 17.1618 9.95746 17.1779 9.92524C17.194 9.89302 17.2129 9.85232 17.2276 9.81473C17.2327 9.80088 17.2367 9.78646 17.2415 9.77346C17.2959 9.61807 17.3185 9.45332 17.3079 9.28902V9.28648C17.3041 9.2331 17.2967 9.18003 17.2859 9.12763C17.2836 9.11633 17.2805 9.10502 17.2779 9.09372C17.2714 9.06545 17.2669 9.03719 17.2584 9.01203L17.3998 8.87071L17.4043 8.86619C17.4628 8.80749 17.5328 8.76144 17.6098 8.73091C17.6869 8.70037 17.7694 8.686 17.8523 8.68869C17.9361 8.69068 18.0186 8.7099 18.0947 8.74515C18.1708 8.78041 18.2389 8.83094 18.2946 8.89361V8.89361ZM16.971 6.74555C17.031 6.68616 17.1024 6.63954 17.1809 6.60849C17.2594 6.57745 17.3434 6.56264 17.4277 6.56494C17.5119 6.5672 17.5946 6.5867 17.6709 6.62223C17.7472 6.65777 17.8154 6.7086 17.8712 6.77155C17.975 6.89921 18.0267 7.06141 18.0159 7.2256C18.0051 7.38979 17.9326 7.54383 17.813 7.65678L17.0038 8.46569L16.9981 8.47163L16.9481 8.52194C16.941 8.51544 16.9334 8.51007 16.9266 8.50385C16.904 8.48378 16.8814 8.46428 16.8577 8.44732C16.8339 8.43036 16.8133 8.41538 16.7907 8.4004C16.7681 8.38542 16.7452 8.36959 16.7211 8.35603C16.6971 8.34246 16.6646 8.32776 16.6364 8.31476C16.6149 8.30459 16.594 8.29356 16.5719 8.2848C16.5224 8.26517 16.4716 8.24893 16.4199 8.23619H16.4167L16.516 8.13727C16.569 8.08319 16.617 8.02445 16.6595 7.96175C16.6669 7.95129 16.6734 7.94083 16.6802 7.93009C16.7128 7.88023 16.7418 7.82809 16.7669 7.77407C16.774 7.75909 16.7816 7.74581 16.7881 7.7297C16.8142 7.66801 16.8353 7.6043 16.8512 7.5392C16.8562 7.51857 16.8585 7.49765 16.8625 7.47702C16.8709 7.43308 16.8771 7.38875 16.8811 7.34418C16.8834 7.31592 16.8845 7.28765 16.8848 7.25741C16.8848 7.21841 16.8828 7.17968 16.8794 7.14068C16.8769 7.11242 16.8758 7.08415 16.8715 7.05815C16.8624 6.99965 16.8489 6.94192 16.8311 6.88546L16.971 6.74555ZM7.87596 16.9856C7.40958 16.7515 6.99053 16.4332 6.63998 16.0466C5.90988 15.2206 5.52649 14.1447 5.56961 13.0431C5.61273 11.9415 6.07903 10.8989 6.87146 10.1324L8.90646 8.09741C8.96771 8.03588 9.05084 8.00112 9.13766 8.00075C9.21082 7.99973 9.28161 8.02673 9.33551 8.07622C9.42546 8.16045 9.49756 8.26191 9.54751 8.37457C9.59746 8.48722 9.62425 8.60877 9.62628 8.73199C9.62831 8.85521 9.60554 8.97757 9.55933 9.09182C9.51311 9.20606 9.4444 9.30984 9.35727 9.39699L7.44352 11.3096C7.41653 11.3357 7.39499 11.3669 7.38018 11.4013C7.36537 11.4358 7.35757 11.4729 7.35725 11.5104C7.35692 11.548 7.36407 11.5852 7.37828 11.6199C7.39249 11.6547 7.41348 11.6862 7.44002 11.7128C7.46656 11.7393 7.49811 11.7603 7.53285 11.7745C7.56758 11.7887 7.6048 11.7959 7.64233 11.7955C7.67986 11.7952 7.71695 11.7874 7.75143 11.7726C7.78591 11.7578 7.8171 11.7363 7.84317 11.7093L9.75494 9.79777L12.728 6.82469C12.785 6.7673 12.8528 6.72179 12.9276 6.69078C13.0023 6.65978 13.0824 6.64391 13.1633 6.64408V6.64408C13.2857 6.64415 13.4053 6.68048 13.507 6.7485C13.6087 6.81652 13.688 6.91317 13.7348 7.02623C13.7817 7.1393 13.7939 7.2637 13.7701 7.38373C13.7462 7.50376 13.6873 7.61402 13.6008 7.70059L10.4172 10.8848C10.3902 10.9109 10.3686 10.9421 10.3538 10.9765C10.339 11.011 10.3312 11.0481 10.3309 11.0856C10.3306 11.1232 10.3377 11.1604 10.3519 11.1951C10.3661 11.2299 10.3871 11.2614 10.4137 11.288C10.4402 11.3145 10.4718 11.3355 10.5065 11.3497C10.5412 11.3639 10.5784 11.3711 10.616 11.3707C10.6535 11.3704 10.6906 11.3626 10.7251 11.3478C10.7596 11.333 10.7907 11.3114 10.8168 11.2845L14.0007 8.10024L15.2771 6.82412C15.3366 6.76471 15.4076 6.71803 15.4857 6.68694C15.5638 6.65585 15.6474 6.641 15.7314 6.6433C15.8154 6.64561 15.8981 6.66501 15.9744 6.70032C16.0507 6.73564 16.119 6.78613 16.1751 6.84871C16.2533 6.93684 16.3026 7.04683 16.3164 7.16386C16.3164 7.17149 16.3164 7.17968 16.3178 7.1876C16.3207 7.21737 16.3215 7.24731 16.3201 7.27719C16.3201 7.28765 16.3181 7.29811 16.3173 7.30857C16.3145 7.33707 16.3101 7.36539 16.304 7.39336C16.3017 7.40353 16.2992 7.41371 16.2963 7.42388C16.2881 7.45381 16.2779 7.48317 16.2658 7.51179C16.263 7.51885 16.2602 7.52592 16.2571 7.5327C16.2222 7.60804 16.1744 7.67665 16.1157 7.73535L15.4597 8.39136L15.3054 8.5454L15.3037 8.54737V8.54879L11.6916 12.1592C11.6646 12.1853 11.6431 12.2165 11.6282 12.251C11.6134 12.2854 11.6056 12.3225 11.6053 12.3601C11.605 12.3976 11.6121 12.4348 11.6263 12.4695C11.6406 12.5043 11.6615 12.5358 11.6881 12.5624C11.7146 12.5889 11.7462 12.6099 11.7809 12.6241C11.8156 12.6383 11.8529 12.6455 11.8904 12.6451C11.9279 12.6448 11.965 12.637 11.9995 12.6222C12.034 12.6074 12.0652 12.5859 12.0912 12.5589L15.702 8.94816C15.7135 8.93657 15.7268 8.92837 15.739 8.91791C15.8511 8.82386 15.992 8.77109 16.1383 8.7684C16.1443 8.7684 16.1497 8.7684 16.1553 8.7684C16.1974 8.76949 16.2392 8.77479 16.2802 8.78423C16.4037 8.81332 16.5151 8.87985 16.5993 8.97472C16.6633 9.04708 16.7075 9.13469 16.7276 9.2291C16.7518 9.34146 16.7474 9.45811 16.7147 9.56829C16.682 9.67848 16.6221 9.77868 16.5405 9.85967L16.484 9.9162L15.3373 11.06C15.3348 11.0626 15.3342 11.0657 15.3317 11.0682L12.9657 13.4342C12.9387 13.4603 12.9172 13.4915 12.9024 13.5259C12.8876 13.5604 12.8798 13.5975 12.8794 13.635C12.8791 13.6726 12.8863 13.7098 12.9005 13.7445C12.9147 13.7793 12.9357 13.8108 12.9622 13.8374C12.9888 13.8639 13.0203 13.8849 13.055 13.8991C13.0898 13.9133 13.127 13.9205 13.1645 13.9201C13.2021 13.9198 13.2391 13.912 13.2736 13.8972C13.3081 13.8824 13.3393 13.8608 13.3654 13.8339L15.7395 11.4614C15.8266 11.374 15.938 11.3149 16.0592 11.2918L16.0674 11.2895C16.1088 11.2821 16.1509 11.2791 16.1929 11.2805C16.2309 11.2819 16.2688 11.2867 16.306 11.2949L16.3178 11.2966C16.3322 11.3 16.3461 11.3065 16.3594 11.3107C16.466 11.3433 16.5618 11.4042 16.6366 11.4868C16.6633 11.5164 16.6867 11.5487 16.7064 11.5832C16.7725 11.7112 16.7957 11.857 16.7724 11.9991C16.7491 12.1413 16.6807 12.2721 16.5773 12.3723L12.7529 16.1947C12.6752 16.2725 12.5949 16.3462 12.5127 16.4169C12.4974 16.4296 12.4818 16.4415 12.4666 16.4542C12.401 16.5087 12.3346 16.5613 12.2665 16.6116C12.2399 16.6311 12.2125 16.6498 12.1856 16.6682C12.1274 16.7089 12.0684 16.7481 12.0087 16.7857C11.9759 16.8064 11.9431 16.8262 11.9098 16.8459C11.8533 16.8784 11.7984 16.9095 11.7416 16.9398C11.7043 16.9596 11.6667 16.9793 11.6286 16.998C11.576 17.024 11.5226 17.048 11.4689 17.0715C11.4262 17.0904 11.3841 17.1099 11.34 17.128C11.2959 17.1461 11.2484 17.1619 11.2026 17.1786C11.1495 17.1978 11.0969 17.2179 11.0432 17.2351C11.0328 17.2385 11.022 17.2411 11.0116 17.2442C10.929 17.2696 10.8456 17.2931 10.7614 17.3134C10.7589 17.3134 10.7569 17.316 10.7541 17.3168C9.7857 17.55 8.76605 17.4326 7.87596 16.9856V16.9856ZM14.4487 16.1162C13.8638 16.7056 13.1168 17.1078 12.3027 17.2716C12.3196 17.2609 12.3349 17.2476 12.3518 17.2365C12.4428 17.178 12.5305 17.1136 12.6181 17.0483C12.669 17.0107 12.7215 16.9757 12.7707 16.9353C12.8761 16.8505 12.977 16.7578 13.0762 16.6625C13.1011 16.639 13.1285 16.6187 13.1525 16.5947L16.9767 12.7706C17.0277 12.7182 17.074 12.6614 17.1151 12.601C17.1293 12.5809 17.1411 12.5603 17.1541 12.5397C17.1765 12.5039 17.1969 12.467 17.2155 12.4291C17.2313 12.3969 17.246 12.365 17.259 12.3319C17.2672 12.3107 17.2737 12.289 17.2808 12.2672C17.3295 12.1217 17.3504 11.9682 17.3424 11.815C17.3424 11.8065 17.3424 11.798 17.3424 11.7895C17.339 11.7414 17.3325 11.6935 17.3229 11.6462C17.3192 11.6273 17.3141 11.6089 17.3096 11.5897C17.3051 11.5705 17.3003 11.5433 17.2932 11.521L17.4325 11.3814C17.4919 11.3217 17.5628 11.2747 17.6409 11.2433C17.719 11.212 17.8027 11.1969 17.8869 11.199C17.971 11.2012 18.0539 11.2205 18.1303 11.2558C18.2067 11.2911 18.2751 11.3416 18.3313 11.4043C18.4347 11.5329 18.4861 11.6956 18.4754 11.8602C18.4646 12.0249 18.3924 12.1795 18.2731 12.2935L14.4487 16.1162Z"/>
</mask>
<path d="M18.1479 10.6677L18.6366 10.179C18.86 9.96454 18.9927 9.67252 19.0072 9.36313C19.0218 9.05374 18.9172 8.75055 18.7149 8.516C18.556 8.33729 18.3462 8.21153 18.1137 8.15564L18.2126 8.05671C18.4367 7.84246 18.5698 7.55024 18.5844 7.24056C18.599 6.93088 18.4939 6.62745 18.2909 6.3931C18.184 6.27304 18.0536 6.17623 17.9077 6.10865C17.7619 6.04107 17.6037 6.00417 17.443 6.00023C17.2821 5.99708 17.1222 6.02597 16.9725 6.08522C16.8229 6.14447 16.6865 6.23289 16.5713 6.34533L16.5168 6.39988C16.3078 6.20123 16.0328 6.0867 15.7446 6.07824C15.5842 6.07524 15.4248 6.10433 15.2757 6.16378C15.1267 6.22324 14.991 6.31187 14.8766 6.42447L14.3139 6.98721C14.2519 6.72878 14.1048 6.4987 13.8963 6.33395C13.6878 6.16919 13.4299 6.07933 13.1641 6.07881H13.1624C13.0075 6.07866 12.8541 6.10918 12.7111 6.16861C12.568 6.22803 12.4381 6.31518 12.3289 6.42504L10.1809 8.5731C10.1407 8.22517 9.97773 7.90299 9.72131 7.66441C9.55326 7.51264 9.33319 7.43147 9.10684 7.43779C8.88049 7.44411 8.66528 7.53742 8.50596 7.69833L6.47096 9.73333C5.57554 10.6024 5.04986 11.7834 5.00337 13.0304C4.95688 14.2774 5.39317 15.4943 6.22139 16.4276C6.79018 17.0605 7.51874 17.5286 8.3307 17.783C9.14266 18.0375 10.0081 18.0687 10.8363 17.8736C11.0508 17.9028 11.2669 17.9177 11.4833 17.9183C12.109 17.9186 12.7285 17.7949 13.3062 17.5544C13.8838 17.3138 14.4079 16.9611 14.8484 16.5167L18.6725 12.6954C18.8953 12.48 19.0275 12.1876 19.0419 11.878C19.0563 11.5684 18.9518 11.2649 18.7499 11.0298C18.5911 10.8503 18.3809 10.7239 18.1479 10.6677V10.6677ZM18.2946 8.89361C18.3983 9.0213 18.4501 9.18339 18.4396 9.34756C18.4291 9.51173 18.3572 9.66592 18.2381 9.7794L17.0343 10.9832L16.984 11.0335C16.9758 11.0256 16.9668 11.0193 16.9586 11.012C16.9385 10.9942 16.9181 10.9769 16.8972 10.9608C16.8763 10.9447 16.8475 10.9247 16.8218 10.9077C16.8014 10.8944 16.7811 10.8794 16.7599 10.8684C16.7293 10.8512 16.6977 10.8365 16.666 10.8221C16.6477 10.8136 16.6301 10.8042 16.6115 10.7969C16.5601 10.7762 16.5073 10.7594 16.4535 10.7466L16.8441 10.3557L16.9422 10.2582C16.9921 10.2072 17.0376 10.1522 17.0784 10.0937C17.0956 10.0697 17.1101 10.0445 17.1253 10.0196C17.144 9.98855 17.1618 9.95746 17.1779 9.92524C17.194 9.89302 17.2129 9.85232 17.2276 9.81473C17.2327 9.80088 17.2367 9.78646 17.2415 9.77346C17.2959 9.61807 17.3185 9.45332 17.3079 9.28902V9.28648C17.3041 9.2331 17.2967 9.18003 17.2859 9.12763C17.2836 9.11633 17.2805 9.10502 17.2779 9.09372C17.2714 9.06545 17.2669 9.03719 17.2584 9.01203L17.3998 8.87071L17.4043 8.86619C17.4628 8.80749 17.5328 8.76144 17.6098 8.73091C17.6869 8.70037 17.7694 8.686 17.8523 8.68869C17.9361 8.69068 18.0186 8.7099 18.0947 8.74515C18.1708 8.78041 18.2389 8.83094 18.2946 8.89361V8.89361ZM16.971 6.74555C17.031 6.68616 17.1024 6.63954 17.1809 6.60849C17.2594 6.57745 17.3434 6.56264 17.4277 6.56494C17.5119 6.5672 17.5946 6.5867 17.6709 6.62223C17.7472 6.65777 17.8154 6.7086 17.8712 6.77155C17.975 6.89921 18.0267 7.06141 18.0159 7.2256C18.0051 7.38979 17.9326 7.54383 17.813 7.65678L17.0038 8.46569L16.9981 8.47163L16.9481 8.52194C16.941 8.51544 16.9334 8.51007 16.9266 8.50385C16.904 8.48378 16.8814 8.46428 16.8577 8.44732C16.8339 8.43036 16.8133 8.41538 16.7907 8.4004C16.7681 8.38542 16.7452 8.36959 16.7211 8.35603C16.6971 8.34246 16.6646 8.32776 16.6364 8.31476C16.6149 8.30459 16.594 8.29356 16.5719 8.2848C16.5224 8.26517 16.4716 8.24893 16.4199 8.23619H16.4167L16.516 8.13727C16.569 8.08319 16.617 8.02445 16.6595 7.96175C16.6669 7.95129 16.6734 7.94083 16.6802 7.93009C16.7128 7.88023 16.7418 7.82809 16.7669 7.77407C16.774 7.75909 16.7816 7.74581 16.7881 7.7297C16.8142 7.66801 16.8353 7.6043 16.8512 7.5392C16.8562 7.51857 16.8585 7.49765 16.8625 7.47702C16.8709 7.43308 16.8771 7.38875 16.8811 7.34418C16.8834 7.31592 16.8845 7.28765 16.8848 7.25741C16.8848 7.21841 16.8828 7.17968 16.8794 7.14068C16.8769 7.11242 16.8758 7.08415 16.8715 7.05815C16.8624 6.99965 16.8489 6.94192 16.8311 6.88546L16.971 6.74555ZM7.87596 16.9856C7.40958 16.7515 6.99053 16.4332 6.63998 16.0466C5.90988 15.2206 5.52649 14.1447 5.56961 13.0431C5.61273 11.9415 6.07903 10.8989 6.87146 10.1324L8.90646 8.09741C8.96771 8.03588 9.05084 8.00112 9.13766 8.00075C9.21082 7.99973 9.28161 8.02673 9.33551 8.07622C9.42546 8.16045 9.49756 8.26191 9.54751 8.37457C9.59746 8.48722 9.62425 8.60877 9.62628 8.73199C9.62831 8.85521 9.60554 8.97757 9.55933 9.09182C9.51311 9.20606 9.4444 9.30984 9.35727 9.39699L7.44352 11.3096C7.41653 11.3357 7.39499 11.3669 7.38018 11.4013C7.36537 11.4358 7.35757 11.4729 7.35725 11.5104C7.35692 11.548 7.36407 11.5852 7.37828 11.6199C7.39249 11.6547 7.41348 11.6862 7.44002 11.7128C7.46656 11.7393 7.49811 11.7603 7.53285 11.7745C7.56758 11.7887 7.6048 11.7959 7.64233 11.7955C7.67986 11.7952 7.71695 11.7874 7.75143 11.7726C7.78591 11.7578 7.8171 11.7363 7.84317 11.7093L9.75494 9.79777L12.728 6.82469C12.785 6.7673 12.8528 6.72179 12.9276 6.69078C13.0023 6.65978 13.0824 6.64391 13.1633 6.64408V6.64408C13.2857 6.64415 13.4053 6.68048 13.507 6.7485C13.6087 6.81652 13.688 6.91317 13.7348 7.02623C13.7817 7.1393 13.7939 7.2637 13.7701 7.38373C13.7462 7.50376 13.6873 7.61402 13.6008 7.70059L10.4172 10.8848C10.3902 10.9109 10.3686 10.9421 10.3538 10.9765C10.339 11.011 10.3312 11.0481 10.3309 11.0856C10.3306 11.1232 10.3377 11.1604 10.3519 11.1951C10.3661 11.2299 10.3871 11.2614 10.4137 11.288C10.4402 11.3145 10.4718 11.3355 10.5065 11.3497C10.5412 11.3639 10.5784 11.3711 10.616 11.3707C10.6535 11.3704 10.6906 11.3626 10.7251 11.3478C10.7596 11.333 10.7907 11.3114 10.8168 11.2845L14.0007 8.10024L15.2771 6.82412C15.3366 6.76471 15.4076 6.71803 15.4857 6.68694C15.5638 6.65585 15.6474 6.641 15.7314 6.6433C15.8154 6.64561 15.8981 6.66501 15.9744 6.70032C16.0507 6.73564 16.119 6.78613 16.1751 6.84871C16.2533 6.93684 16.3026 7.04683 16.3164 7.16386C16.3164 7.17149 16.3164 7.17968 16.3178 7.1876C16.3207 7.21737 16.3215 7.24731 16.3201 7.27719C16.3201 7.28765 16.3181 7.29811 16.3173 7.30857C16.3145 7.33707 16.3101 7.36539 16.304 7.39336C16.3017 7.40353 16.2992 7.41371 16.2963 7.42388C16.2881 7.45381 16.2779 7.48317 16.2658 7.51179C16.263 7.51885 16.2602 7.52592 16.2571 7.5327C16.2222 7.60804 16.1744 7.67665 16.1157 7.73535L15.4597 8.39136L15.3054 8.5454L15.3037 8.54737V8.54879L11.6916 12.1592C11.6646 12.1853 11.6431 12.2165 11.6282 12.251C11.6134 12.2854 11.6056 12.3225 11.6053 12.3601C11.605 12.3976 11.6121 12.4348 11.6263 12.4695C11.6406 12.5043 11.6615 12.5358 11.6881 12.5624C11.7146 12.5889 11.7462 12.6099 11.7809 12.6241C11.8156 12.6383 11.8529 12.6455 11.8904 12.6451C11.9279 12.6448 11.965 12.637 11.9995 12.6222C12.034 12.6074 12.0652 12.5859 12.0912 12.5589L15.702 8.94816C15.7135 8.93657 15.7268 8.92837 15.739 8.91791C15.8511 8.82386 15.992 8.77109 16.1383 8.7684C16.1443 8.7684 16.1497 8.7684 16.1553 8.7684C16.1974 8.76949 16.2392 8.77479 16.2802 8.78423C16.4037 8.81332 16.5151 8.87985 16.5993 8.97472C16.6633 9.04708 16.7075 9.13469 16.7276 9.2291C16.7518 9.34146 16.7474 9.45811 16.7147 9.56829C16.682 9.67848 16.6221 9.77868 16.5405 9.85967L16.484 9.9162L15.3373 11.06C15.3348 11.0626 15.3342 11.0657 15.3317 11.0682L12.9657 13.4342C12.9387 13.4603 12.9172 13.4915 12.9024 13.5259C12.8876 13.5604 12.8798 13.5975 12.8794 13.635C12.8791 13.6726 12.8863 13.7098 12.9005 13.7445C12.9147 13.7793 12.9357 13.8108 12.9622 13.8374C12.9888 13.8639 13.0203 13.8849 13.055 13.8991C13.0898 13.9133 13.127 13.9205 13.1645 13.9201C13.2021 13.9198 13.2391 13.912 13.2736 13.8972C13.3081 13.8824 13.3393 13.8608 13.3654 13.8339L15.7395 11.4614C15.8266 11.374 15.938 11.3149 16.0592 11.2918L16.0674 11.2895C16.1088 11.2821 16.1509 11.2791 16.1929 11.2805C16.2309 11.2819 16.2688 11.2867 16.306 11.2949L16.3178 11.2966C16.3322 11.3 16.3461 11.3065 16.3594 11.3107C16.466 11.3433 16.5618 11.4042 16.6366 11.4868C16.6633 11.5164 16.6867 11.5487 16.7064 11.5832C16.7725 11.7112 16.7957 11.857 16.7724 11.9991C16.7491 12.1413 16.6807 12.2721 16.5773 12.3723L12.7529 16.1947C12.6752 16.2725 12.5949 16.3462 12.5127 16.4169C12.4974 16.4296 12.4818 16.4415 12.4666 16.4542C12.401 16.5087 12.3346 16.5613 12.2665 16.6116C12.2399 16.6311 12.2125 16.6498 12.1856 16.6682C12.1274 16.7089 12.0684 16.7481 12.0087 16.7857C11.9759 16.8064 11.9431 16.8262 11.9098 16.8459C11.8533 16.8784 11.7984 16.9095 11.7416 16.9398C11.7043 16.9596 11.6667 16.9793 11.6286 16.998C11.576 17.024 11.5226 17.048 11.4689 17.0715C11.4262 17.0904 11.3841 17.1099 11.34 17.128C11.2959 17.1461 11.2484 17.1619 11.2026 17.1786C11.1495 17.1978 11.0969 17.2179 11.0432 17.2351C11.0328 17.2385 11.022 17.2411 11.0116 17.2442C10.929 17.2696 10.8456 17.2931 10.7614 17.3134C10.7589 17.3134 10.7569 17.316 10.7541 17.3168C9.7857 17.55 8.76605 17.4326 7.87596 16.9856V16.9856ZM14.4487 16.1162C13.8638 16.7056 13.1168 17.1078 12.3027 17.2716C12.3196 17.2609 12.3349 17.2476 12.3518 17.2365C12.4428 17.178 12.5305 17.1136 12.6181 17.0483C12.669 17.0107 12.7215 16.9757 12.7707 16.9353C12.8761 16.8505 12.977 16.7578 13.0762 16.6625C13.1011 16.639 13.1285 16.6187 13.1525 16.5947L16.9767 12.7706C17.0277 12.7182 17.074 12.6614 17.1151 12.601C17.1293 12.5809 17.1411 12.5603 17.1541 12.5397C17.1765 12.5039 17.1969 12.467 17.2155 12.4291C17.2313 12.3969 17.246 12.365 17.259 12.3319C17.2672 12.3107 17.2737 12.289 17.2808 12.2672C17.3295 12.1217 17.3504 11.9682 17.3424 11.815C17.3424 11.8065 17.3424 11.798 17.3424 11.7895C17.339 11.7414 17.3325 11.6935 17.3229 11.6462C17.3192 11.6273 17.3141 11.6089 17.3096 11.5897C17.3051 11.5705 17.3003 11.5433 17.2932 11.521L17.4325 11.3814C17.4919 11.3217 17.5628 11.2747 17.6409 11.2433C17.719 11.212 17.8027 11.1969 17.8869 11.199C17.971 11.2012 18.0539 11.2205 18.1303 11.2558C18.2067 11.2911 18.2751 11.3416 18.3313 11.4043C18.4347 11.5329 18.4861 11.6956 18.4754 11.8602C18.4646 12.0249 18.3924 12.1795 18.2731 12.2935L14.4487 16.1162Z" fill="#4F4F4F"/>
<path d="M18.1479 10.6677L18.6366 10.179C18.86 9.96454 18.9927 9.67252 19.0072 9.36313C19.0218 9.05374 18.9172 8.75055 18.7149 8.516C18.556 8.33729 18.3462 8.21153 18.1137 8.15564L18.2126 8.05671C18.4367 7.84246 18.5698 7.55024 18.5844 7.24056C18.599 6.93088 18.4939 6.62745 18.2909 6.3931C18.184 6.27304 18.0536 6.17623 17.9077 6.10865C17.7619 6.04107 17.6037 6.00417 17.443 6.00023C17.2821 5.99708 17.1222 6.02597 16.9725 6.08522C16.8229 6.14447 16.6865 6.23289 16.5713 6.34533L16.5168 6.39988C16.3078 6.20123 16.0328 6.0867 15.7446 6.07824C15.5842 6.07524 15.4248 6.10433 15.2757 6.16378C15.1267 6.22324 14.991 6.31187 14.8766 6.42447L14.3139 6.98721C14.2519 6.72878 14.1048 6.4987 13.8963 6.33395C13.6878 6.16919 13.4299 6.07933 13.1641 6.07881H13.1624C13.0075 6.07866 12.8541 6.10918 12.7111 6.16861C12.568 6.22803 12.4381 6.31518 12.3289 6.42504L10.1809 8.5731C10.1407 8.22517 9.97773 7.90299 9.72131 7.66441C9.55326 7.51264 9.33319 7.43147 9.10684 7.43779C8.88049 7.44411 8.66528 7.53742 8.50596 7.69833L6.47096 9.73333C5.57554 10.6024 5.04986 11.7834 5.00337 13.0304C4.95688 14.2774 5.39317 15.4943 6.22139 16.4276C6.79018 17.0605 7.51874 17.5286 8.3307 17.783C9.14266 18.0375 10.0081 18.0687 10.8363 17.8736C11.0508 17.9028 11.2669 17.9177 11.4833 17.9183C12.109 17.9186 12.7285 17.7949 13.3062 17.5544C13.8838 17.3138 14.4079 16.9611 14.8484 16.5167L18.6725 12.6954C18.8953 12.48 19.0275 12.1876 19.0419 11.878C19.0563 11.5684 18.9518 11.2649 18.7499 11.0298C18.5911 10.8503 18.3809 10.7239 18.1479 10.6677V10.6677ZM18.2946 8.89361C18.3983 9.0213 18.4501 9.18339 18.4396 9.34756C18.4291 9.51173 18.3572 9.66592 18.2381 9.7794L17.0343 10.9832L16.984 11.0335C16.9758 11.0256 16.9668 11.0193 16.9586 11.012C16.9385 10.9942 16.9181 10.9769 16.8972 10.9608C16.8763 10.9447 16.8475 10.9247 16.8218 10.9077C16.8014 10.8944 16.7811 10.8794 16.7599 10.8684C16.7293 10.8512 16.6977 10.8365 16.666 10.8221C16.6477 10.8136 16.6301 10.8042 16.6115 10.7969C16.5601 10.7762 16.5073 10.7594 16.4535 10.7466L16.8441 10.3557L16.9422 10.2582C16.9921 10.2072 17.0376 10.1522 17.0784 10.0937C17.0956 10.0697 17.1101 10.0445 17.1253 10.0196C17.144 9.98855 17.1618 9.95746 17.1779 9.92524C17.194 9.89302 17.2129 9.85232 17.2276 9.81473C17.2327 9.80088 17.2367 9.78646 17.2415 9.77346C17.2959 9.61807 17.3185 9.45332 17.3079 9.28902V9.28648C17.3041 9.2331 17.2967 9.18003 17.2859 9.12763C17.2836 9.11633 17.2805 9.10502 17.2779 9.09372C17.2714 9.06545 17.2669 9.03719 17.2584 9.01203L17.3998 8.87071L17.4043 8.86619C17.4628 8.80749 17.5328 8.76144 17.6098 8.73091C17.6869 8.70037 17.7694 8.686 17.8523 8.68869C17.9361 8.69068 18.0186 8.7099 18.0947 8.74515C18.1708 8.78041 18.2389 8.83094 18.2946 8.89361V8.89361ZM16.971 6.74555C17.031 6.68616 17.1024 6.63954 17.1809 6.60849C17.2594 6.57745 17.3434 6.56264 17.4277 6.56494C17.5119 6.5672 17.5946 6.5867 17.6709 6.62223C17.7472 6.65777 17.8154 6.7086 17.8712 6.77155C17.975 6.89921 18.0267 7.06141 18.0159 7.2256C18.0051 7.38979 17.9326 7.54383 17.813 7.65678L17.0038 8.46569L16.9981 8.47163L16.9481 8.52194C16.941 8.51544 16.9334 8.51007 16.9266 8.50385C16.904 8.48378 16.8814 8.46428 16.8577 8.44732C16.8339 8.43036 16.8133 8.41538 16.7907 8.4004C16.7681 8.38542 16.7452 8.36959 16.7211 8.35603C16.6971 8.34246 16.6646 8.32776 16.6364 8.31476C16.6149 8.30459 16.594 8.29356 16.5719 8.2848C16.5224 8.26517 16.4716 8.24893 16.4199 8.23619H16.4167L16.516 8.13727C16.569 8.08319 16.617 8.02445 16.6595 7.96175C16.6669 7.95129 16.6734 7.94083 16.6802 7.93009C16.7128 7.88023 16.7418 7.82809 16.7669 7.77407C16.774 7.75909 16.7816 7.74581 16.7881 7.7297C16.8142 7.66801 16.8353 7.6043 16.8512 7.5392C16.8562 7.51857 16.8585 7.49765 16.8625 7.47702C16.8709 7.43308 16.8771 7.38875 16.8811 7.34418C16.8834 7.31592 16.8845 7.28765 16.8848 7.25741C16.8848 7.21841 16.8828 7.17968 16.8794 7.14068C16.8769 7.11242 16.8758 7.08415 16.8715 7.05815C16.8624 6.99965 16.8489 6.94192 16.8311 6.88546L16.971 6.74555ZM7.87596 16.9856C7.40958 16.7515 6.99053 16.4332 6.63998 16.0466C5.90988 15.2206 5.52649 14.1447 5.56961 13.0431C5.61273 11.9415 6.07903 10.8989 6.87146 10.1324L8.90646 8.09741C8.96771 8.03588 9.05084 8.00112 9.13766 8.00075C9.21082 7.99973 9.28161 8.02673 9.33551 8.07622C9.42546 8.16045 9.49756 8.26191 9.54751 8.37457C9.59746 8.48722 9.62425 8.60877 9.62628 8.73199C9.62831 8.85521 9.60554 8.97757 9.55933 9.09182C9.51311 9.20606 9.4444 9.30984 9.35727 9.39699L7.44352 11.3096C7.41653 11.3357 7.39499 11.3669 7.38018 11.4013C7.36537 11.4358 7.35757 11.4729 7.35725 11.5104C7.35692 11.548 7.36407 11.5852 7.37828 11.6199C7.39249 11.6547 7.41348 11.6862 7.44002 11.7128C7.46656 11.7393 7.49811 11.7603 7.53285 11.7745C7.56758 11.7887 7.6048 11.7959 7.64233 11.7955C7.67986 11.7952 7.71695 11.7874 7.75143 11.7726C7.78591 11.7578 7.8171 11.7363 7.84317 11.7093L9.75494 9.79777L12.728 6.82469C12.785 6.7673 12.8528 6.72179 12.9276 6.69078C13.0023 6.65978 13.0824 6.64391 13.1633 6.64408V6.64408C13.2857 6.64415 13.4053 6.68048 13.507 6.7485C13.6087 6.81652 13.688 6.91317 13.7348 7.02623C13.7817 7.1393 13.7939 7.2637 13.7701 7.38373C13.7462 7.50376 13.6873 7.61402 13.6008 7.70059L10.4172 10.8848C10.3902 10.9109 10.3686 10.9421 10.3538 10.9765C10.339 11.011 10.3312 11.0481 10.3309 11.0856C10.3306 11.1232 10.3377 11.1604 10.3519 11.1951C10.3661 11.2299 10.3871 11.2614 10.4137 11.288C10.4402 11.3145 10.4718 11.3355 10.5065 11.3497C10.5412 11.3639 10.5784 11.3711 10.616 11.3707C10.6535 11.3704 10.6906 11.3626 10.7251 11.3478C10.7596 11.333 10.7907 11.3114 10.8168 11.2845L14.0007 8.10024L15.2771 6.82412C15.3366 6.76471 15.4076 6.71803 15.4857 6.68694C15.5638 6.65585 15.6474 6.641 15.7314 6.6433C15.8154 6.64561 15.8981 6.66501 15.9744 6.70032C16.0507 6.73564 16.119 6.78613 16.1751 6.84871C16.2533 6.93684 16.3026 7.04683 16.3164 7.16386C16.3164 7.17149 16.3164 7.17968 16.3178 7.1876C16.3207 7.21737 16.3215 7.24731 16.3201 7.27719C16.3201 7.28765 16.3181 7.29811 16.3173 7.30857C16.3145 7.33707 16.3101 7.36539 16.304 7.39336C16.3017 7.40353 16.2992 7.41371 16.2963 7.42388C16.2881 7.45381 16.2779 7.48317 16.2658 7.51179C16.263 7.51885 16.2602 7.52592 16.2571 7.5327C16.2222 7.60804 16.1744 7.67665 16.1157 7.73535L15.4597 8.39136L15.3054 8.5454L15.3037 8.54737V8.54879L11.6916 12.1592C11.6646 12.1853 11.6431 12.2165 11.6282 12.251C11.6134 12.2854 11.6056 12.3225 11.6053 12.3601C11.605 12.3976 11.6121 12.4348 11.6263 12.4695C11.6406 12.5043 11.6615 12.5358 11.6881 12.5624C11.7146 12.5889 11.7462 12.6099 11.7809 12.6241C11.8156 12.6383 11.8529 12.6455 11.8904 12.6451C11.9279 12.6448 11.965 12.637 11.9995 12.6222C12.034 12.6074 12.0652 12.5859 12.0912 12.5589L15.702 8.94816C15.7135 8.93657 15.7268 8.92837 15.739 8.91791C15.8511 8.82386 15.992 8.77109 16.1383 8.7684C16.1443 8.7684 16.1497 8.7684 16.1553 8.7684C16.1974 8.76949 16.2392 8.77479 16.2802 8.78423C16.4037 8.81332 16.5151 8.87985 16.5993 8.97472C16.6633 9.04708 16.7075 9.13469 16.7276 9.2291C16.7518 9.34146 16.7474 9.45811 16.7147 9.56829C16.682 9.67848 16.6221 9.77868 16.5405 9.85967L16.484 9.9162L15.3373 11.06C15.3348 11.0626 15.3342 11.0657 15.3317 11.0682L12.9657 13.4342C12.9387 13.4603 12.9172 13.4915 12.9024 13.5259C12.8876 13.5604 12.8798 13.5975 12.8794 13.635C12.8791 13.6726 12.8863 13.7098 12.9005 13.7445C12.9147 13.7793 12.9357 13.8108 12.9622 13.8374C12.9888 13.8639 13.0203 13.8849 13.055 13.8991C13.0898 13.9133 13.127 13.9205 13.1645 13.9201C13.2021 13.9198 13.2391 13.912 13.2736 13.8972C13.3081 13.8824 13.3393 13.8608 13.3654 13.8339L15.7395 11.4614C15.8266 11.374 15.938 11.3149 16.0592 11.2918L16.0674 11.2895C16.1088 11.2821 16.1509 11.2791 16.1929 11.2805C16.2309 11.2819 16.2688 11.2867 16.306 11.2949L16.3178 11.2966C16.3322 11.3 16.3461 11.3065 16.3594 11.3107C16.466 11.3433 16.5618 11.4042 16.6366 11.4868C16.6633 11.5164 16.6867 11.5487 16.7064 11.5832C16.7725 11.7112 16.7957 11.857 16.7724 11.9991C16.7491 12.1413 16.6807 12.2721 16.5773 12.3723L12.7529 16.1947C12.6752 16.2725 12.5949 16.3462 12.5127 16.4169C12.4974 16.4296 12.4818 16.4415 12.4666 16.4542C12.401 16.5087 12.3346 16.5613 12.2665 16.6116C12.2399 16.6311 12.2125 16.6498 12.1856 16.6682C12.1274 16.7089 12.0684 16.7481 12.0087 16.7857C11.9759 16.8064 11.9431 16.8262 11.9098 16.8459C11.8533 16.8784 11.7984 16.9095 11.7416 16.9398C11.7043 16.9596 11.6667 16.9793 11.6286 16.998C11.576 17.024 11.5226 17.048 11.4689 17.0715C11.4262 17.0904 11.3841 17.1099 11.34 17.128C11.2959 17.1461 11.2484 17.1619 11.2026 17.1786C11.1495 17.1978 11.0969 17.2179 11.0432 17.2351C11.0328 17.2385 11.022 17.2411 11.0116 17.2442C10.929 17.2696 10.8456 17.2931 10.7614 17.3134C10.7589 17.3134 10.7569 17.316 10.7541 17.3168C9.7857 17.55 8.76605 17.4326 7.87596 16.9856V16.9856ZM14.4487 16.1162C13.8638 16.7056 13.1168 17.1078 12.3027 17.2716C12.3196 17.2609 12.3349 17.2476 12.3518 17.2365C12.4428 17.178 12.5305 17.1136 12.6181 17.0483C12.669 17.0107 12.7215 16.9757 12.7707 16.9353C12.8761 16.8505 12.977 16.7578 13.0762 16.6625C13.1011 16.639 13.1285 16.6187 13.1525 16.5947L16.9767 12.7706C17.0277 12.7182 17.074 12.6614 17.1151 12.601C17.1293 12.5809 17.1411 12.5603 17.1541 12.5397C17.1765 12.5039 17.1969 12.467 17.2155 12.4291C17.2313 12.3969 17.246 12.365 17.259 12.3319C17.2672 12.3107 17.2737 12.289 17.2808 12.2672C17.3295 12.1217 17.3504 11.9682 17.3424 11.815C17.3424 11.8065 17.3424 11.798 17.3424 11.7895C17.339 11.7414 17.3325 11.6935 17.3229 11.6462C17.3192 11.6273 17.3141 11.6089 17.3096 11.5897C17.3051 11.5705 17.3003 11.5433 17.2932 11.521L17.4325 11.3814C17.4919 11.3217 17.5628 11.2747 17.6409 11.2433C17.719 11.212 17.8027 11.1969 17.8869 11.199C17.971 11.2012 18.0539 11.2205 18.1303 11.2558C18.2067 11.2911 18.2751 11.3416 18.3313 11.4043C18.4347 11.5329 18.4861 11.6956 18.4754 11.8602C18.4646 12.0249 18.3924 12.1795 18.2731 12.2935L14.4487 16.1162Z" stroke="#4F4F4F" stroke-width="0.4" mask="url(#path-1-outside-1)"/>
</svg>
