<svg width="24" height="24" viewBox="0 0 24 24" fill="none" xmlns="http://www.w3.org/2000/svg">
<path d="M18.071 8.45916C17.8632 7.97793 17.5635 7.54185 17.1888 7.17532C16.8137 6.80769 16.3716 6.51555 15.8863 6.31477C15.3831 6.10575 14.8434 5.99876 14.2986 6.00001C13.5342 6.00001 12.7883 6.20933 12.1402 6.60472C11.9852 6.6993 11.8379 6.80319 11.6983 6.91638C11.5588 6.80319 11.4115 6.6993 11.2564 6.60472C10.6083 6.20933 9.86248 6.00001 9.09807 6.00001C8.54763 6.00001 8.01424 6.10545 7.51032 6.31477C7.02345 6.51634 6.58465 6.80629 6.20787 7.17532C5.83263 7.54143 5.53289 7.97762 5.32561 8.45916C5.11009 8.95998 5 9.49182 5 10.0392C5 10.5555 5.10544 11.0935 5.31476 11.6409C5.48997 12.0983 5.74116 12.5727 6.06212 13.0519C6.57069 13.8101 7.26999 14.6008 8.13829 15.4025C9.57718 16.7313 11.0021 17.6492 11.0626 17.6864L11.4301 17.9221C11.5929 18.026 11.8022 18.026 11.965 17.9221L12.3325 17.6864C12.393 17.6476 13.8164 16.7313 15.2568 15.4025C16.1251 14.6008 16.8244 13.8101 17.333 13.0519C17.6539 12.5727 17.9067 12.0983 18.0803 11.6409C18.2896 11.0935 18.3951 10.5555 18.3951 10.0392C18.3966 9.49182 18.2865 8.95998 18.071 8.45916V8.45916ZM11.6983 16.6956C11.6983 16.6956 6.17841 13.1588 6.17841 10.0392C6.17841 8.45916 7.48551 7.17842 9.09807 7.17842C10.2315 7.17842 11.2145 7.81104 11.6983 8.73516C12.1821 7.81104 13.1651 7.17842 14.2986 7.17842C15.9111 7.17842 17.2182 8.45916 17.2182 10.0392C17.2182 13.1588 11.6983 16.6956 11.6983 16.6956Z" fill="#4F4F4F"/>
</svg>
