<svg width="16" height="16" viewBox="0 0 16 16" fill="none" xmlns="http://www.w3.org/2000/svg">
<path d="M9.8 12.8H11.6C11.9183 12.8 12.2235 12.6736 12.4485 12.4485C12.6736 12.2235 12.8 11.9183 12.8 11.6V9.8C12.8 9.64087 12.8632 9.48826 12.9757 9.37574C13.0883 9.26321 13.2409 9.2 13.4 9.2C13.5591 9.2 13.7117 9.26321 13.8243 9.37574C13.9368 9.48826 14 9.64087 14 9.8V11.6C14 12.2365 13.7471 12.847 13.2971 13.2971C12.847 13.7471 12.2365 14 11.6 14H4.4C3.76348 14 3.15303 13.7471 2.70294 13.2971C2.25286 12.847 2 12.2365 2 11.6V9.8C2 9.64087 2.06321 9.48826 2.17574 9.37574C2.28826 9.26321 2.44087 9.2 2.6 9.2C2.75913 9.2 2.91174 9.26321 3.02426 9.37574C3.13679 9.48826 3.2 9.64087 3.2 9.8V11.6C3.2 11.9183 3.32643 12.2235 3.55147 12.4485C3.77652 12.6736 4.08174 12.8 4.4 12.8H6.2C6.35913 12.8 6.51174 12.8632 6.62426 12.9757C6.73679 13.0883 6.8 13.2409 6.8 13.4C6.8 13.5591 6.73679 13.7117 6.62426 13.8243C6.51174 13.9368 6.35913 14 6.2 14H9.8C9.64087 14 9.48826 13.9368 9.37574 13.8243C9.26321 13.7117 9.2 13.5591 9.2 13.4C9.2 13.2409 9.26321 13.0883 9.37574 12.9757C9.48826 12.8632 9.64087 12.8 9.8 12.8V12.8ZM3.2 6.2C3.2 6.35913 3.13679 6.51174 3.02426 6.62426C2.91174 6.73679 2.75913 6.8 2.6 6.8C2.44087 6.8 2.28826 6.73679 2.17574 6.62426C2.06321 6.51174 2 6.35913 2 6.2V4.4C2 3.76348 2.25286 3.15303 2.70294 2.70294C3.15303 2.25286 3.76348 2 4.4 2H6.2C6.35913 2 6.51174 2.06321 6.62426 2.17574C6.73679 2.28826 6.8 2.44087 6.8 2.6C6.8 2.75913 6.73679 2.91174 6.62426 3.02426C6.51174 3.13679 6.35913 3.2 6.2 3.2H4.4C4.08174 3.2 3.77652 3.32643 3.55147 3.55147C3.32643 3.77652 3.2 4.08174 3.2 4.4V6.2ZM12.8 6.2V4.4C12.8 4.08174 12.6736 3.77652 12.4485 3.55147C12.2235 3.32643 11.9183 3.2 11.6 3.2H9.8C9.64087 3.2 9.48826 3.13679 9.37574 3.02426C9.26321 2.91174 9.2 2.75913 9.2 2.6C9.2 2.44087 9.26321 2.28826 9.37574 2.17574C9.48826 2.06321 9.64087 2 9.8 2H11.6C12.2365 2 12.847 2.25286 13.2971 2.70294C13.7471 3.15303 14 3.76348 14 4.4V6.2C14 6.35913 13.9368 6.51174 13.8243 6.62426C13.7117 6.73679 13.5591 6.8 13.4 6.8C13.2409 6.8 13.0883 6.73679 12.9757 6.62426C12.8632 6.51174 12.8 6.35913 12.8 6.2Z" fill="#4F4F4F"/>
</svg>
