<svg width="16" height="16" viewBox="0 0 16 16" fill="none" xmlns="http://www.w3.org/2000/svg">
<path d="M11.4845 2C11.4054 2.00195 11.3268 2.01251 11.25 2.0315L3.125 4.1715C2.80384 4.25653 2.51963 4.44496 2.31629 4.70768C2.11294 4.9704 2.00179 5.29278 2 5.625V12.5C2 13.3225 2.6775 14 3.5 14H12.5C13.3225 14 14 13.3225 14 12.5V6C14 5.1775 13.3225 4.5 12.5 4.5H5.8125L11.5 3V4H12.5V3C12.5 2.4375 12.0215 1.992 11.4845 2ZM3.5 5.5H12.5C12.783 5.5 13 5.717 13 6V12.5C13 12.783 12.783 13 12.5 13H3.5C3.217 13 3 12.783 3 12.5V6C3 5.717 3.217 5.5 3.5 5.5ZM11.25 8.5C11.0511 8.5 10.8603 8.57902 10.7197 8.71967C10.579 8.86032 10.5 9.05109 10.5 9.25C10.5 9.44891 10.579 9.63968 10.7197 9.78033C10.8603 9.92098 11.0511 10 11.25 10C11.4489 10 11.6397 9.92098 11.7803 9.78033C11.921 9.63968 12 9.44891 12 9.25C12 9.05109 11.921 8.86032 11.7803 8.71967C11.6397 8.57902 11.4489 8.5 11.25 8.5Z" fill="#4F4F4F"/>
</svg>
