<svg xmlns="http://www.w3.org/2000/svg" viewBox="0 0 57.05 52"><title>post</title><g id="Слой_2" data-name="Слой 2"><g id="Слой_1-2" data-name="Слой 1"><path d="M57.05,23v23.1A5.89,5.89,0,0,1,51.16,52H5.89A5.89,5.89,0,0,1,0,46.11V23a5.89,5.89,0,0,1,5.89-5.89h8.4a2,2,0,0,1,0,4H5.89A1.89,1.89,0,0,0,4,23v23.1A1.89,1.89,0,0,0,5.89,48H51.16a1.89,1.89,0,0,0,1.89-1.89V23a1.89,1.89,0,0,0-1.89-1.89h-9a2,2,0,0,1,0-4h9A5.89,5.89,0,0,1,57.05,23ZM17.7,15.53a2,2,0,0,0,1.41-.59l1.47-1.46,6.65-6.65V37a2,2,0,0,0,4,0V6.83l6.33,6.33,1.37,1.37a2,2,0,0,0,2.83-2.83L30.64.59a1.42,1.42,0,0,0-.3-.25L30.19.26,30,.15,29.8.09l-.18,0a1.69,1.69,0,0,0-.38,0h0a1.72,1.72,0,0,0-.39,0l-.17,0a1.66,1.66,0,0,0-.21.06l-.18.1a1.29,1.29,0,0,0-.16.09,1.79,1.79,0,0,0-.31.25L16.28,12.12a2,2,0,0,0,0,2.82A2,2,0,0,0,17.7,15.53Z"/></g></g></svg>