<svg xmlns="http://www.w3.org/2000/svg" viewBox="0 0 52 35.05"><title>transfers</title><g id="Слой_2" data-name="Слой 2"><g id="Слой_1-2" data-name="Слой 1"><path d="M51.66,18.92a1.19,1.19,0,0,0,.09-.15l.1-.2.06-.2A.84.84,0,0,0,52,18.2a2,2,0,0,0,0-.78.84.84,0,0,0-.05-.17L51.85,17c0-.06-.07-.12-.1-.19a1.19,1.19,0,0,0-.09-.15,1.79,1.79,0,0,0-.25-.31L35.6.59a2,2,0,0,0-2.82,0,2,2,0,0,0,0,2.82l1.46,1.47L45.17,15.81H2a2,2,0,0,0,0,4H45.17L34.71,30.27l-1.36,1.36a2,2,0,1,0,2.83,2.83L51.41,19.22A1.42,1.42,0,0,0,51.66,18.92Z"/></g></g></svg>