<svg xmlns="http://www.w3.org/2000/svg" viewBox="0 0 52 35.05"><title>transfer</title><g id="Слой_2" data-name="Слой 2"><g id="Слой_1-2" data-name="Слой 1"><path d="M52,18.2a.84.84,0,0,1-.05.17l-.06.2-.1.2a1.19,1.19,0,0,1-.09.15,1.42,1.42,0,0,1-.25.3L36.18,34.46a2,2,0,0,1-1.42.59,2,2,0,0,1-1.41-3.42l1.36-1.36L45.17,19.81H2a2,2,0,0,1,0-4H45.17L34.24,4.88,32.78,3.41a2,2,0,0,1,0-2.82,2,2,0,0,1,2.82,0l15.81,15.8a1.79,1.79,0,0,1,.25.31,1.19,1.19,0,0,1,.09.15c0,.07.07.13.1.19l.06.21a.84.84,0,0,1,.05.17A2,2,0,0,1,52,18.2Z"/></g></g></svg>